<?xml version="1.0" encoding="UTF-8"?>
<svg id="Layer_1" data-name="Layer 1" xmlns="http://www.w3.org/2000/svg" viewBox="0 0 1024 1080">
  <defs>
    <style>
      .cls-1 {
        fill: #f99f1b;
      }

      .cls-1, .cls-2 {
        stroke-width: 0px;
      }

      .cls-2 {
        fill: #3951a3;
      }
    </style>
  </defs>
  <polygon class="cls-2" points="822.66 412.5 754.11 412.5 754.11 476.25 754.11 540 822.66 540 891.22 540 891.22 476.25 891.22 412.5 822.66 412.5"/>
  <polygon class="cls-2" points="411.33 412.5 342.78 412.5 342.78 476.25 342.78 540 411.33 540 479.89 540 479.89 476.25 479.89 412.5 411.33 412.5"/>
  <g>
    <rect class="cls-1" x="822.66" y="285.01" width="68.56" height="63.75"/>
    <path class="cls-1" d="m891.22,476.25v63.75h-68.56v63.74h-137.11v-63.74h-68.55v-191.24h68.55v-63.75h137.11v-63.74h-68.55v-63.75h-137.11v-63.74h-274.22v63.74h-137.11v63.75h-68.56v63.74h-68.55v191.24H0v509.96h68.56v-63.74h68.55v-63.75h68.56v63.75h68.55v63.74h137.11v-127.49h137.11v127.49h137.11v-63.74h68.56v-63.75h68.55v63.75h68.56v63.74h68.55v-509.96h-68.55Zm-685.55,0v-127.49h68.55v-63.75h137.11v63.75h68.56v191.24h-68.56v63.74h-137.11v-63.74h-68.55v-63.75Z"/>
  </g>
</svg>